<svg xmlns="http://www.w3.org/2000/svg" width="1200" height="630" viewBox="0 0 1200 630" role="img" aria-label="Risiko-Register von BuiltSmart Hub">
  <defs>
    <linearGradient id="bg" x1="0" y1="0" x2="1" y2="1">
      <stop offset="0%" stop-color="#0B1F3A"/>
      <stop offset="100%" stop-color="#061428"/>
    </linearGradient>
    <linearGradient id="card" x1="0" y1="0" x2="1" y2="1">
      <stop offset="0%" stop-color="#ffffff"/>
      <stop offset="100%" stop-color="#e9f2fb"/>
    </linearGradient>
  </defs>
  <rect width="1200" height="630" fill="url(#bg)"/>
  <circle cx="1020" cy="110" r="140" fill="#7aa0c8" fill-opacity="0.12"/>
  <circle cx="160" cy="520" r="180" fill="#7aa0c8" fill-opacity="0.10"/>
  <rect x="72" y="72" width="1056" height="486" rx="36" fill="url(#card)" fill-opacity="0.06" stroke="#ffffff" stroke-opacity="0.12"/>
  <rect x="92" y="92" width="140" height="140" rx="28" fill="#0B1F3A" stroke="#ffffff" stroke-opacity="0.18"/>
  <text x="162" y="176" text-anchor="middle" font-family="Arial, sans-serif" font-size="62" font-weight="700" fill="#ffffff">RR</text>
  <text x="275" y="150" font-family="Arial, sans-serif" font-size="26" font-weight="700" fill="#d8e6f5" letter-spacing="2">BUILTSMART HUB</text>
  <text x="275" y="205" font-family="Georgia, 'Times New Roman', serif" font-size="74" font-weight="700" fill="#ffffff">Risiko-Register</text>
  <text x="92" y="312" font-family="Arial, sans-serif" font-size="34" font-weight="700" fill="#d8e6f5">Risiken strukturiert erfassen. Klar priorisieren. Fundiert entscheiden.</text>
  <text x="92" y="362" font-family="Arial, sans-serif" font-size="24" fill="#f5f7fb">KI-gestützte Risikoanalyse, Berichterstellung und transparente Maßnahmensteuerung.</text>
  <rect x="92" y="414" width="250" height="60" rx="30" fill="#ffffff" fill-opacity="0.10" stroke="#ffffff" stroke-opacity="0.22"/>
  <text x="217" y="452" text-anchor="middle" font-family="Arial, sans-serif" font-size="20" font-weight="700" fill="#ffffff">Für Bau &amp; Immobilien</text>
  <rect x="92" y="494" width="186" height="18" rx="9" fill="#ffffff" fill-opacity="0.18"/>
  <rect x="294" y="494" width="250" height="18" rx="9" fill="#ffffff" fill-opacity="0.12"/>
  <rect x="560" y="494" width="196" height="18" rx="9" fill="#ffffff" fill-opacity="0.10"/>
  <rect x="772" y="494" width="206" height="18" rx="9" fill="#ffffff" fill-opacity="0.08"/>
</svg>
