<svg xmlns="http://www.w3.org/2000/svg" width="1200" height="630" viewBox="0 0 1200 630" role="img" aria-label="SMART RISK Risiko-Register von BuiltSmart Hub">
  <defs>
    <linearGradient id="bg" x1="0" y1="0" x2="1" y2="1">
      <stop offset="0%" stop-color="#0B1F3A"/>
      <stop offset="100%" stop-color="#061428"/>
    </linearGradient>
    <linearGradient id="card" x1="0" y1="0" x2="1" y2="1">
      <stop offset="0%" stop-color="#ffffff"/>
      <stop offset="100%" stop-color="#e9f2fb"/>
    </linearGradient>
    <linearGradient id="iconBg" x1="0" y1="0" x2="1" y2="1">
      <stop offset="0%" stop-color="#49a0ff"/>
      <stop offset="100%" stop-color="#0B66E3"/>
    </linearGradient>
  </defs>
  <rect width="1200" height="630" fill="url(#bg)"/>
  <circle cx="1010" cy="110" r="140" fill="#7aa0c8" fill-opacity="0.12"/>
  <circle cx="160" cy="520" r="180" fill="#7aa0c8" fill-opacity="0.10"/>
  <rect x="72" y="72" width="1056" height="486" rx="36" fill="url(#card)" fill-opacity="0.06" stroke="#ffffff" stroke-opacity="0.12"/>

  <rect x="92" y="92" width="148" height="148" rx="30" fill="url(#iconBg)" stroke="#ffffff" stroke-opacity="0.18"/>
  <rect x="129" y="129" width="74" height="74" rx="18" fill="#ffffff"/>
  <circle cx="151" cy="151" r="15" fill="#e03b3b"/>
  <circle cx="151" cy="174" r="15" fill="#f4b11f"/>
  <circle cx="151" cy="197" r="15" fill="#2db54a"/>
  <rect x="180" y="146" width="10" height="10" rx="5" fill="#c9d8ea"/>
  <rect x="194" y="146" width="10" height="10" rx="5" fill="#c9d8ea"/>
  <rect x="208" y="146" width="10" height="10" rx="5" fill="#c9d8ea"/>
  <rect x="180" y="169" width="38" height="10" rx="5" fill="#7fb4ff"/>
  <rect x="180" y="192" width="38" height="10" rx="5" fill="#c9d8ea"/>

  <text x="275" y="150" font-family="Arial, sans-serif" font-size="26" font-weight="700" fill="#d8e6f5" letter-spacing="2">BUILTSMART HUB</text>
  <text x="275" y="205" font-family="Georgia, 'Times New Roman', serif" font-size="74" font-weight="700" fill="#ffffff">SMART RISK Risiko-Register</text>
  <text x="92" y="312" font-family="Arial, sans-serif" font-size="34" font-weight="700" fill="#d8e6f5">Risiken strukturiert erfassen. Klar priorisieren. Fundiert entscheiden.</text>
  <text x="92" y="362" font-family="Arial, sans-serif" font-size="24" fill="#f5f7fb">KI-gestützte Risikoanalyse, Berichterstellung und transparente Maßnahmensteuerung.</text>
  <rect x="92" y="414" width="250" height="60" rx="30" fill="#ffffff" fill-opacity="0.10" stroke="#ffffff" stroke-opacity="0.22"/>
  <text x="217" y="452" text-anchor="middle" font-family="Arial, sans-serif" font-size="20" font-weight="700" fill="#ffffff">Für Bau &amp; Immobilien</text>
  <rect x="92" y="494" width="186" height="18" rx="9" fill="#ffffff" fill-opacity="0.18"/>
  <rect x="294" y="494" width="250" height="18" rx="9" fill="#ffffff" fill-opacity="0.12"/>
  <rect x="560" y="494" width="196" height="18" rx="9" fill="#ffffff" fill-opacity="0.10"/>
  <rect x="772" y="494" width="206" height="18" rx="9" fill="#ffffff" fill-opacity="0.08"/>
</svg>
